<?xml version="1.0" encoding="utf-8"?><!-- Uploaded to: SVG Repo, www.svgrepo.com, Generator: SVG Repo Mixer Tools -->
<svg fill="#000000" width="800px" height="800px" viewBox="0 0 24 24" id="plastic-bottle-2" data-name="Flat Line" xmlns="http://www.w3.org/2000/svg" class="icon flat-line"><path id="secondary" d="M14,5.59V4a1,1,0,0,0-1-1H11a1,1,0,0,0-1,1V5.59A3.41,3.41,0,0,1,9,8H9a3.41,3.41,0,0,0-1,2.41V12a1,1,0,0,0,1,1h6a1,1,0,0,0,1-1V10.41A3.41,3.41,0,0,0,15,8h0A3.41,3.41,0,0,1,14,5.59ZM16,20V18a1,1,0,0,0-1-1H9a1,1,0,0,0-1,1v2a1,1,0,0,0,1,1h6A1,1,0,0,0,16,20Z" style="fill: rgb(44, 169, 188); stroke-width: 2;"></path><path id="primary" d="M14,5.59V4a1,1,0,0,0-1-1H11a1,1,0,0,0-1,1V5.59A3.41,3.41,0,0,1,9,8H9a3.41,3.41,0,0,0-1,2.41V12a1,1,0,0,0,1,1h6a1,1,0,0,0,1-1V10.41A3.41,3.41,0,0,0,15,8h0A3.41,3.41,0,0,1,14,5.59ZM16,20V18a1,1,0,0,0-1-1H9a1,1,0,0,0-1,1v2a1,1,0,0,0,1,1h6A1,1,0,0,0,16,20Zm0-4V14a1,1,0,0,0-1-1H9a1,1,0,0,0-1,1v2a1,1,0,0,0,1,1h6A1,1,0,0,0,16,16Z" style="fill: none; stroke: rgb(0, 0, 0); stroke-linecap: round; stroke-linejoin: round; stroke-width: 2;"></path></svg>